<mxfile host="Electron" modified="2024-06-28T05:36:17.215Z" agent="Mozilla/5.0 (Windows NT 10.0; Win64; x64) AppleWebKit/537.36 (KHTML, like Gecko) draw.io/24.5.3 Chrome/124.0.6367.207 Electron/30.0.6 Safari/537.36" etag="lzFtdcP--ExbuTQFrlcW" version="24.5.3" type="device">
  <diagram name="Page-1" id="om4HHHsU7aC2W0cappdG">
    <mxGraphModel dx="1034" dy="605" grid="1" gridSize="10" guides="1" tooltips="1" connect="1" arrows="1" fold="1" page="1" pageScale="1" pageWidth="850" pageHeight="1100" math="0" shadow="0">
      <root>
        <mxCell id="0" />
        <mxCell id="1" parent="0" />
        <mxCell id="n8ZgpCW0ZjQEd8stwqfs-15" value="MeetingRoom" style="rounded=0;whiteSpace=wrap;html=1;fillColor=#647687;fontColor=#ffffff;strokeColor=#314354;fontSize=14;fontStyle=1" vertex="1" parent="1">
          <mxGeometry x="340" y="100" width="180" height="60" as="geometry" />
        </mxCell>
        <mxCell id="n8ZgpCW0ZjQEd8stwqfs-17" style="edgeStyle=orthogonalEdgeStyle;rounded=0;orthogonalLoop=1;jettySize=auto;html=1;entryX=0.5;entryY=1;entryDx=0;entryDy=0;" edge="1" parent="1" source="n8ZgpCW0ZjQEd8stwqfs-16" target="n8ZgpCW0ZjQEd8stwqfs-15">
          <mxGeometry relative="1" as="geometry" />
        </mxCell>
        <mxCell id="n8ZgpCW0ZjQEd8stwqfs-16" value="ZoomMeetingRoom" style="rounded=0;whiteSpace=wrap;html=1;fillColor=#647687;fontColor=#ffffff;strokeColor=#314354;fontSize=14;fontStyle=1" vertex="1" parent="1">
          <mxGeometry x="340" y="440" width="180" height="60" as="geometry" />
        </mxCell>
        <mxCell id="n8ZgpCW0ZjQEd8stwqfs-18" value="capacity" style="ellipse;whiteSpace=wrap;html=1;" vertex="1" parent="1">
          <mxGeometry x="660" y="110" width="120" height="80" as="geometry" />
        </mxCell>
        <mxCell id="n8ZgpCW0ZjQEd8stwqfs-19" value="floorNo" style="ellipse;whiteSpace=wrap;html=1;" vertex="1" parent="1">
          <mxGeometry x="530" y="200" width="120" height="80" as="geometry" />
        </mxCell>
        <mxCell id="n8ZgpCW0ZjQEd8stwqfs-20" value="meetingID" style="ellipse;whiteSpace=wrap;html=1;" vertex="1" parent="1">
          <mxGeometry x="540" width="120" height="80" as="geometry" />
        </mxCell>
        <mxCell id="n8ZgpCW0ZjQEd8stwqfs-23" value="zoomDeviceId" style="ellipse;whiteSpace=wrap;html=1;" vertex="1" parent="1">
          <mxGeometry x="610" y="370" width="120" height="80" as="geometry" />
        </mxCell>
        <mxCell id="n8ZgpCW0ZjQEd8stwqfs-24" value="accountID" style="ellipse;whiteSpace=wrap;html=1;" vertex="1" parent="1">
          <mxGeometry x="570" y="480" width="120" height="80" as="geometry" />
        </mxCell>
        <mxCell id="n8ZgpCW0ZjQEd8stwqfs-25" value="Meeting meetings[]&amp;nbsp; =&amp;nbsp; new Meeting[5];&lt;div style=&quot;font-size: 19px;&quot;&gt;meetings[0] = new Meeting(); //constructor //getters and seeters&lt;/div&gt;&lt;div style=&quot;font-size: 19px;&quot;&gt;ZoomMeeting zoomMeetings[] = new ZoomMeetings[5];&lt;/div&gt;&lt;div style=&quot;font-size: 19px;&quot;&gt;zoomMeetings[0] = new ZoomMeeting();&lt;/div&gt;" style="rounded=0;whiteSpace=wrap;html=1;fontSize=19;" vertex="1" parent="1">
          <mxGeometry x="100" y="640" width="680" height="190" as="geometry" />
        </mxCell>
        <mxCell id="n8ZgpCW0ZjQEd8stwqfs-26" value="&lt;span style=&quot;font-size: 16px; font-weight: 700;&quot;&gt;&lt;font color=&quot;#141414&quot;&gt;PSEUDO-CODE&lt;/font&gt;&lt;/span&gt;&lt;div&gt;&lt;span style=&quot;font-size: 16px; font-weight: 700;&quot;&gt;&lt;font color=&quot;#141414&quot;&gt;SNIPPETS&lt;/font&gt;&lt;/span&gt;&lt;/div&gt;" style="whiteSpace=wrap;html=1;aspect=fixed;fillColor=#bac8d3;strokeColor=#23445d;" vertex="1" parent="1">
          <mxGeometry x="30" y="490" width="115" height="115" as="geometry" />
        </mxCell>
        <mxCell id="n8ZgpCW0ZjQEd8stwqfs-27" value="" style="rounded=0;whiteSpace=wrap;html=1;fillColor=#647687;fontColor=#ffffff;strokeColor=#314354;fontSize=14;fontStyle=1" vertex="1" parent="1">
          <mxGeometry x="90" y="910" width="145" height="60" as="geometry" />
        </mxCell>
        <mxCell id="n8ZgpCW0ZjQEd8stwqfs-29" value="" style="rounded=0;whiteSpace=wrap;html=1;fillColor=#60a917;fontColor=#ffffff;strokeColor=#2D7600;fontSize=14;fontStyle=1" vertex="1" parent="1">
          <mxGeometry x="235" y="910" width="145" height="60" as="geometry" />
        </mxCell>
        <mxCell id="n8ZgpCW0ZjQEd8stwqfs-30" value="" style="rounded=0;whiteSpace=wrap;html=1;fillColor=#647687;fontColor=#ffffff;strokeColor=#314354;fontSize=14;fontStyle=1" vertex="1" parent="1">
          <mxGeometry x="380" y="910" width="145" height="60" as="geometry" />
        </mxCell>
        <mxCell id="n8ZgpCW0ZjQEd8stwqfs-31" value="" style="rounded=0;whiteSpace=wrap;html=1;fillColor=#60a917;fontColor=#ffffff;strokeColor=#2D7600;fontSize=14;fontStyle=1" vertex="1" parent="1">
          <mxGeometry x="525" y="910" width="145" height="60" as="geometry" />
        </mxCell>
        <mxCell id="n8ZgpCW0ZjQEd8stwqfs-32" value="" style="rounded=0;whiteSpace=wrap;html=1;fillColor=#647687;fontColor=#ffffff;strokeColor=#314354;fontSize=14;fontStyle=1" vertex="1" parent="1">
          <mxGeometry x="670" y="910" width="145" height="60" as="geometry" />
        </mxCell>
        <mxCell id="n8ZgpCW0ZjQEd8stwqfs-35" style="edgeStyle=orthogonalEdgeStyle;rounded=0;orthogonalLoop=1;jettySize=auto;html=1;" edge="1" parent="1" source="n8ZgpCW0ZjQEd8stwqfs-33">
          <mxGeometry relative="1" as="geometry">
            <mxPoint x="170" y="980" as="targetPoint" />
          </mxGeometry>
        </mxCell>
        <mxCell id="n8ZgpCW0ZjQEd8stwqfs-33" value="&lt;span style=&quot;color: rgb(240, 240, 240); font-family: Helvetica; font-size: 19px; font-style: normal; font-variant-ligatures: normal; font-variant-caps: normal; font-weight: 400; letter-spacing: normal; orphans: 2; text-align: center; text-indent: 0px; text-transform: none; widows: 2; word-spacing: 0px; -webkit-text-stroke-width: 0px; white-space: normal; background-color: rgb(27, 29, 30); text-decoration-thickness: initial; text-decoration-style: initial; text-decoration-color: initial; display: inline !important; float: none;&quot;&gt;Meeting meetings[]&amp;nbsp; =&amp;nbsp; new Meeting[5];&lt;/span&gt;&lt;div&gt;&lt;span style=&quot;color: rgb(240, 240, 240); font-family: Helvetica; font-size: 19px; font-style: normal; font-variant-ligatures: normal; font-variant-caps: normal; font-weight: 400; letter-spacing: normal; orphans: 2; text-align: center; text-indent: 0px; text-transform: none; widows: 2; word-spacing: 0px; -webkit-text-stroke-width: 0px; white-space: normal; background-color: rgb(27, 29, 30); text-decoration-thickness: initial; text-decoration-style: initial; text-decoration-color: initial; display: inline !important; float: none;&quot;&gt;meetings[0] = new Meeting();&lt;/span&gt;&lt;/div&gt;&lt;div&gt;&lt;span style=&quot;color: rgb(240, 240, 240); font-family: Helvetica; font-size: 19px; font-style: normal; font-variant-ligatures: normal; font-variant-caps: normal; font-weight: 400; letter-spacing: normal; orphans: 2; text-align: center; text-indent: 0px; text-transform: none; widows: 2; word-spacing: 0px; -webkit-text-stroke-width: 0px; white-space: normal; background-color: rgb(27, 29, 30); text-decoration-thickness: initial; text-decoration-style: initial; text-decoration-color: initial; display: inline !important; float: none;&quot;&gt;&lt;br&gt;&lt;/span&gt;&lt;/div&gt;&lt;div&gt;&lt;span style=&quot;color: rgb(240, 240, 240); font-family: Helvetica; font-size: 19px; font-style: normal; font-variant-ligatures: normal; font-variant-caps: normal; font-weight: 400; letter-spacing: normal; orphans: 2; text-align: center; text-indent: 0px; text-transform: none; widows: 2; word-spacing: 0px; -webkit-text-stroke-width: 0px; white-space: normal; background-color: rgb(27, 29, 30); text-decoration-thickness: initial; text-decoration-style: initial; text-decoration-color: initial; display: inline !important; float: none;&quot;&gt;Meeting meeting1 = new Meeting();&lt;/span&gt;&lt;/div&gt;&lt;div&gt;&lt;span style=&quot;color: rgb(240, 240, 240); font-family: Helvetica; font-size: 19px; font-style: normal; font-variant-ligatures: normal; font-variant-caps: normal; font-weight: 400; letter-spacing: normal; orphans: 2; text-align: center; text-indent: 0px; text-transform: none; widows: 2; word-spacing: 0px; -webkit-text-stroke-width: 0px; white-space: normal; background-color: rgb(27, 29, 30); text-decoration-thickness: initial; text-decoration-style: initial; text-decoration-color: initial; display: inline !important; float: none;&quot;&gt;meetings[0] = meeting1;&lt;/span&gt;&lt;/div&gt;" style="text;whiteSpace=wrap;html=1;" vertex="1" parent="1">
          <mxGeometry x="260" y="990" width="360" height="50" as="geometry" />
        </mxCell>
        <mxCell id="n8ZgpCW0ZjQEd8stwqfs-34" value="" style="ellipse;whiteSpace=wrap;html=1;fillColor=#a20025;fontColor=#ffffff;strokeColor=#6F0000;" vertex="1" parent="1">
          <mxGeometry x="120" y="910" width="105" height="60" as="geometry" />
        </mxCell>
      </root>
    </mxGraphModel>
  </diagram>
</mxfile>
